<svg width="24" height="24" viewBox="0 0 24 24" fill="none" xmlns="http://www.w3.org/2000/svg">
<g id="Iconly/Two-tone/Bag">
<g id="Bag">
<path id="Path_33955" fill-rule="evenodd" clip-rule="evenodd" d="M17.0137 22H8.66592C5.59955 22 3.24715 20.8924 3.91534 16.4348L4.69338 10.3936C5.10528 8.16931 6.52404 7.31805 7.76889 7.31805H17.9474C19.2105 7.31805 20.5469 8.23339 21.0229 10.3936L21.8009 16.4348C22.3684 20.389 20.0801 22 17.0137 22Z" stroke="#8F95B2" stroke-width="1.5" stroke-linecap="round" stroke-linejoin="round"/>
<path id="Path_33956" d="M17.151 7.09839C17.151 4.71232 15.2167 2.77802 12.8307 2.77802V2.77802C11.6817 2.77315 10.5781 3.22618 9.76388 4.03694C8.94969 4.84769 8.49199 5.94938 8.492 7.09839V7.09839" stroke="#8F95B2" stroke-width="1.5" stroke-linecap="round" stroke-linejoin="round"/>
<path id="Line_192" d="M15.7963 11.6018H15.7506" stroke="#8F95B2" stroke-width="1.5" stroke-linecap="round" stroke-linejoin="round"/>
<path id="Line_193" d="M9.96572 11.6018H9.91995" stroke="#8F95B2" stroke-width="1.5" stroke-linecap="round" stroke-linejoin="round"/>
</g>
</g>
</svg>
