<svg width="24" height="25" viewBox="0 0 24 25" fill="none" xmlns="http://www.w3.org/2000/svg">
<g id="Users">
<g id="Iconly/Light-Outline/3-User">
<g id="3-User">
<path id="Combined-Shape" fill-rule="evenodd" clip-rule="evenodd" d="M11.8867 14.914L11.9996 14.914L12.2522 14.9149C14.1828 14.9276 18.5947 15.1226 18.5947 18.113C18.5947 21.0837 14.3365 21.2775 12.2823 21.2901L11.5211 21.2901C9.59045 21.2774 5.17766 21.0826 5.17766 18.096C5.17766 15.1215 9.59045 14.9275 11.5211 14.9149L11.7737 14.914C11.8129 14.914 11.8506 14.914 11.8867 14.914ZM11.8867 16.414C9.51066 16.414 6.67766 16.706 6.67766 18.096C6.67766 19.4545 9.34157 19.7722 11.6695 19.7902L11.8867 19.791C14.2627 19.791 17.0947 19.5 17.0947 18.113C17.0947 16.709 14.2627 16.414 11.8867 16.414ZM19.8403 14.5082C22.2633 14.8712 22.7723 16.0092 22.7723 16.9002C22.7723 17.4442 22.5583 18.4372 21.1283 18.9822C21.0403 19.0152 20.9503 19.0312 20.8613 19.0312C20.5593 19.0312 20.2743 18.8472 20.1603 18.5482C20.0123 18.1612 20.2073 17.7272 20.5943 17.5802C21.2723 17.3222 21.2723 17.0372 21.2723 16.9002C21.2723 16.4622 20.7153 16.1562 19.6173 15.9922C19.2083 15.9302 18.9253 15.5492 18.9863 15.1382C19.0473 14.7282 19.4273 14.4552 19.8403 14.5082ZM4.78606 15.1382C4.84706 15.5492 4.56406 15.9302 4.15506 15.9922C3.05706 16.1562 2.50006 16.4622 2.50006 16.9002C2.50006 17.0372 2.50006 17.3212 3.17906 17.5802C3.56606 17.7272 3.76106 18.1612 3.61306 18.5482C3.49906 18.8472 3.21406 19.0312 2.91206 19.0312C2.82306 19.0312 2.73306 19.0152 2.64506 18.9822C1.21406 18.4362 1.00006 17.4432 1.00006 16.9002C1.00006 16.0102 1.50906 14.8712 3.93306 14.5082C4.34606 14.4562 4.72406 14.7282 4.78606 15.1382ZM11.8867 4.5C14.4067 4.5 16.4557 6.55 16.4557 9.069C16.4557 11.588 14.4067 13.638 11.8867 13.638H11.8597C10.6397 13.634 9.49666 13.156 8.64066 12.292C7.78266 11.429 7.31366 10.283 7.31862 9.066C7.31862 6.55 9.36766 4.5 11.8867 4.5ZM11.8867 6C10.1947 6 8.81864 7.377 8.81864 9.069C8.81566 9.889 9.12966 10.656 9.70466 11.235C10.2797 11.814 11.0457 12.135 11.8617 12.138L11.8867 12.888V12.138C13.5787 12.138 14.9557 10.762 14.9557 9.069C14.9557 7.377 13.5787 6 11.8867 6ZM18.0757 5.4795C19.8337 5.7685 21.1107 7.2725 21.1107 9.0555C21.1067 10.8505 19.7657 12.3905 17.9907 12.6395C17.9557 12.6445 17.9207 12.6465 17.8867 12.6465C17.5187 12.6465 17.1977 12.3755 17.1447 12.0005C17.0877 11.5895 17.3727 11.2105 17.7837 11.1535C18.8237 11.0075 19.6087 10.1055 19.6107 9.0535C19.6107 8.0105 18.8627 7.1285 17.8317 6.9595C17.4237 6.8925 17.1467 6.5065 17.2137 6.0975C17.2817 5.6885 17.6647 5.4145 18.0757 5.4795ZM6.55966 6.0975C6.62666 6.5065 6.34966 6.8925 5.94166 6.9595C4.91066 7.1285 4.16266 8.0105 4.16266 9.0555C4.16466 10.1055 4.94966 11.0085 5.98866 11.1535C6.39966 11.2105 6.68466 11.5895 6.62766 12.0005C6.57466 12.3755 6.25366 12.6465 5.88566 12.6465C5.85166 12.6465 5.81666 12.6445 5.78166 12.6395C4.00666 12.3905 2.66666 10.8505 2.66266 9.0575C2.66266 7.2725 3.93966 5.7685 5.69766 5.4795C6.11866 5.4135 6.49166 5.6905 6.55966 6.0975Z" fill="#8F95B2"/>
</g>
</g>
</g>
</svg>
